<?xml version="1.0" standalone="no"?>
<!DOCTYPE svg PUBLIC "-//W3C//DTD SVG 20010904//EN"
 "http://www.w3.org/TR/2001/REC-SVG-20010904/DTD/svg10.dtd">
<svg version="1.0" xmlns="http://www.w3.org/2000/svg"
 width="512.000000pt" height="512.000000pt" viewBox="0 0 512.000000 512.000000"
 preserveAspectRatio="xMidYMid meet">
<metadata>
Created by potrace 1.16, written by Peter Selinger 2001-2019
</metadata>
<g transform="translate(0.000000,512.000000) scale(0.100000,-0.100000)"
 stroke="none">
<path d="M2779 4590 c-44 -13 -79 -41 -104 -84 -21 -36 -57 -256 -310 -1915
-201 -1316 -284 -1885 -280 -1912 10 -56 58 -117 112 -141 57 -25 136 -20 188
12 80 49 56 -78 370 1979 201 1316 284 1885 280 1912 -19 111 -143 184 -256
149z"/>
<path d="M1290 3992 c-48 -26 -1265 -1315 -1279 -1354 -15 -43 -14 -122 3
-161 7 -18 289 -324 626 -681 671 -710 652 -692 756 -684 100 8 166 78 172
182 3 50 -1 69 -20 103 -13 23 -259 291 -548 597 -289 305 -525 560 -525 566
0 6 236 261 525 566 289 306 535 574 548 597 19 34 23 53 20 103 -7 108 -71
173 -180 181 -49 3 -71 0 -98 -15z"/>
<path d="M3675 3999 c-38 -11 -94 -64 -111 -106 -21 -50 -17 -124 9 -171 12
-22 258 -290 547 -596 289 -305 525 -560 525 -566 0 -6 -236 -260 -525 -566
-289 -306 -535 -575 -548 -597 -19 -34 -23 -53 -20 -103 6 -104 72 -174 172
-182 105 -9 85 -26 756 684 337 357 619 663 626 681 8 18 14 55 14 83 0 28 -6
65 -14 83 -7 18 -289 324 -626 680 -465 493 -622 653 -654 668 -43 20 -101 23
-151 8z"/>
</g>
</svg>
