<?xml version="1.0" standalone="no"?>
<!DOCTYPE svg PUBLIC "-//W3C//DTD SVG 20010904//EN"
 "http://www.w3.org/TR/2001/REC-SVG-20010904/DTD/svg10.dtd">
<svg version="1.0" xmlns="http://www.w3.org/2000/svg"
 width="128.000000pt" height="128.000000pt" viewBox="0 0 128.000000 128.000000"
 preserveAspectRatio="xMidYMid meet">
<metadata>
Created by potrace 1.16, written by Peter Selinger 2001-2019
</metadata>
<g transform="translate(0.000000,128.000000) scale(0.100000,-0.100000)"
stroke="none">
<path d="M526 1072 c-55 -31 -101 -62 -103 -69 -4 -12 191 -133 215 -133 7 0
12 14 12 35 0 32 2 35 30 35 87 0 212 -84 262 -177 96 -176 20 -395 -165 -479
-124 -56 -265 -32 -369 65 -131 120 -147 301 -41 463 17 27 17 28 -12 58 -16
16 -34 30 -40 30 -20 0 -53 -43 -86 -115 -28 -58 -34 -85 -37 -158 -10 -200
80 -353 258 -440 62 -31 69 -32 190 -32 120 0 127 1 190 32 178 87 268 240
258 440 -3 76 -9 100 -40 164 -41 87 -108 160 -187 203 -57 31 -139 56 -183
56 -26 0 -28 3 -28 40 0 25 -5 40 -12 40 -7 0 -58 -26 -112 -58z"/>
</g>
</svg>
