<?xml version="1.0" standalone="no"?>
<!DOCTYPE svg PUBLIC "-//W3C//DTD SVG 20010904//EN"
 "http://www.w3.org/TR/2001/REC-SVG-20010904/DTD/svg10.dtd">
<svg version="1.0" xmlns="http://www.w3.org/2000/svg"
 width="512.000000pt" height="512.000000pt" viewBox="0 0 512.000000 512.000000"
 preserveAspectRatio="xMidYMid meet">
<metadata>
Created by potrace 1.16, written by Peter Selinger 2001-2019
</metadata>
<g transform="translate(0.000000,512.000000) scale(0.100000,-0.100000)"
stroke="none">
<path d="M2088 5101 c-145 -47 -269 -174 -312 -320 -11 -37 -16 -95 -16 -177
l0 -123 -497 -3 -498 -3 -60 -29 c-77 -38 -153 -114 -191 -191 l-29 -60 -3
-365 c-2 -351 -2 -366 18 -398 32 -52 75 -72 152 -72 l66 0 6 -62 c3 -35 35
-693 71 -1463 36 -770 71 -1425 77 -1455 33 -168 155 -304 321 -359 63 -21 65
-21 1388 -19 l1325 3 78 39 c139 68 237 192 265 336 6 30 40 685 76 1455 36
770 68 1428 71 1463 l6 62 66 0 c77 0 120 20 152 72 20 32 20 47 18 398 l-3
365 -29 60 c-38 77 -114 153 -191 191 l-60 29 -497 3 -498 3 0 123 c0 94 -5
139 -19 185 -46 147 -172 272 -320 315 -46 14 -119 16 -465 15 -370 0 -417 -2
-468 -18z m816 -311 c94 -21 127 -75 134 -211 l5 -99 -483 0 -483 0 5 99 c7
134 41 190 129 211 47 11 645 12 693 0z m1360 -644 c50 -21 56 -51 56 -272 l0
-194 -1760 0 -1760 0 0 194 c0 218 7 251 54 272 47 20 3361 21 3410 0z m-200
-848 c-2 -35 -34 -688 -69 -1453 -62 -1334 -66 -1392 -86 -1433 -12 -23 -38
-52 -58 -65 l-36 -22 -1255 0 -1255 0 -36 22 c-20 13 -46 42 -58 65 -20 41
-24 99 -86 1433 -35 765 -67 1418 -69 1453 l-5 62 1509 0 1509 0 -5 -62z"/>
<path d="M1672 3020 c-18 -11 -41 -34 -52 -52 -20 -32 -20 -53 -20 -1128 0
-1075 0 -1096 20 -1128 30 -48 75 -72 140 -72 65 0 110 24 140 72 20 32 20 53
20 1128 0 1075 0 1096 -20 1128 -30 48 -75 72 -140 72 -37 0 -66 -6 -88 -20z"/>
<path d="M2472 3020 c-18 -11 -41 -34 -52 -52 -20 -32 -20 -53 -20 -1128 0
-1075 0 -1096 20 -1128 30 -48 75 -72 140 -72 65 0 110 24 140 72 20 32 20 53
20 1128 0 1075 0 1096 -20 1128 -30 48 -75 72 -140 72 -37 0 -66 -6 -88 -20z"/>
<path d="M3272 3020 c-18 -11 -41 -34 -52 -52 -20 -32 -20 -53 -20 -1128 0
-1075 0 -1096 20 -1128 30 -48 75 -72 140 -72 65 0 110 24 140 72 20 32 20 53
20 1128 0 1075 0 1096 -20 1128 -30 48 -75 72 -140 72 -37 0 -66 -6 -88 -20z"/>
</g>
</svg>
